<svg width="24" height="12" viewBox="0 0 24 12" fill="none" xmlns="http://www.w3.org/2000/svg">
<g opacity="0.35">
<path d="M18.7862 0.833008H3.0863C1.95888 0.833008 1.04492 1.80321 1.04492 3.00001V8.99901C1.04492 10.1958 1.95888 11.166 3.0863 11.166H18.7862C19.9136 11.166 20.8275 10.1958 20.8275 8.99901V3.00001C20.8275 1.80321 19.9136 0.833008 18.7862 0.833008Z" stroke="#FFFEFE" stroke-miterlimit="10"/>
</g>
<path opacity="0.4" d="M22.2412 4V8C22.612 7.8343 22.9285 7.55614 23.151 7.20038C23.3735 6.84461 23.4922 6.42705 23.4922 6C23.4922 5.57295 23.3735 5.15539 23.151 4.79962C22.9285 4.44386 22.612 4.1657 22.2412 4" fill="#FFFEFE"/>
<path d="M18.1588 2.33301H3.71373C3.02021 2.33301 2.45801 2.92981 2.45801 3.66601V8.33301C2.45801 9.0692 3.02021 9.66601 3.71373 9.66601H18.1588C18.8523 9.66601 19.4145 9.0692 19.4145 8.33301V3.66601C19.4145 2.92981 18.8523 2.33301 18.1588 2.33301Z" fill="#FFFEFE"/>
</svg>
