<svg width="17" height="12" viewBox="0 0 17 12" fill="none" xmlns="http://www.w3.org/2000/svg">
<path d="M15.7678 11.334H14.8257C14.5759 11.334 14.3363 11.2286 14.1596 11.0411C13.983 10.8536 13.8837 10.5992 13.8837 10.334V1.66699C13.8837 1.40178 13.983 1.14742 14.1596 0.959885C14.3363 0.772349 14.5759 0.666992 14.8257 0.666992H15.7678C16.0176 0.666992 16.2572 0.772349 16.4339 0.959885C16.6106 1.14742 16.7098 1.40178 16.7098 1.66699V10.334C16.7098 10.5992 16.6106 10.8536 16.4339 11.0411C16.2572 11.2286 16.0176 11.334 15.7678 11.334ZM11.3713 11.334H10.4293C10.1795 11.334 9.93985 11.2286 9.76318 11.0411C9.58652 10.8536 9.48727 10.5992 9.48727 10.334V4.00099C9.48727 3.73578 9.58652 3.48142 9.76318 3.29389C9.93985 3.10635 10.1795 3.00099 10.4293 3.00099H11.3713C11.6212 3.00099 11.8608 3.10635 12.0374 3.29389C12.2141 3.48142 12.3134 3.73578 12.3134 4.00099V10.334C12.3134 10.599 12.2142 10.8532 12.0378 11.0407C11.8613 11.2283 11.6219 11.3337 11.3723 11.334H11.3713ZM6.97488 11.334H6.03285C5.78301 11.334 5.5434 11.2286 5.36673 11.0411C5.19007 10.8536 5.09082 10.5992 5.09082 10.334V6.33399C5.09082 6.06878 5.19007 5.81442 5.36673 5.62689C5.5434 5.43935 5.78301 5.33399 6.03285 5.33399H6.97488C7.22472 5.33399 7.46433 5.43935 7.64099 5.62689C7.81766 5.81442 7.91691 6.06878 7.91691 6.33399V10.334C7.91691 10.5992 7.81766 10.8536 7.64099 11.0411C7.46433 11.2286 7.22472 11.334 6.97488 11.334ZM2.57937 11.334H1.63734C1.3875 11.334 1.14789 11.2286 0.971226 11.0411C0.794562 10.8536 0.695313 10.5992 0.695312 10.334V8.33399C0.695312 8.06878 0.794562 7.81442 0.971226 7.62689C1.14789 7.43935 1.3875 7.33399 1.63734 7.33399H2.57937C2.82921 7.33399 3.06882 7.43935 3.24549 7.62689C3.42215 7.81442 3.5214 8.06878 3.5214 8.33399V10.334C3.5214 10.5992 3.42215 10.8536 3.24549 11.0411C3.06882 11.2286 2.82921 11.334 2.57937 11.334Z" fill="#FFFEFE"/>
</svg>
