<svg width="21" height="21" viewBox="0 0 21 21" fill="none" xmlns="http://www.w3.org/2000/svg">
<path d="M10.0011 20.5001C8.27617 20.5004 6.58077 20.0524 5.0811 19.2001C4.75784 18.9602 4.37494 18.8135 3.9741 18.7761C3.84388 18.7764 3.71456 18.7977 3.5911 18.8391L1.5711 19.4391C1.49804 19.4626 1.42182 19.4747 1.3451 19.4751C1.24893 19.4768 1.15369 19.4561 1.06691 19.4146C0.980129 19.3731 0.904191 19.312 0.845099 19.2361C0.785085 19.154 0.745296 19.0588 0.728964 18.9584C0.712631 18.8579 0.720214 18.7551 0.751099 18.6581L1.4211 16.4141C1.47737 16.2684 1.5003 16.1119 1.48819 15.9562C1.47607 15.8004 1.42923 15.6494 1.3511 15.5141C0.493274 13.9853 0.0293377 12.267 0.00109863 10.5141C0.0148848 7.90994 1.02833 5.41052 2.8321 3.53212C3.76216 2.56566 4.8791 1.79848 6.11497 1.27724C7.35085 0.756005 8.67983 0.491606 10.0211 0.500123C11.3483 0.494574 12.6629 0.756876 13.8863 1.27133C15.1097 1.78578 16.2167 2.54179 17.1411 3.49412C18.0376 4.41121 18.7504 5.49127 19.2411 6.67612C19.7437 7.88307 20.002 9.1777 20.0011 10.4851C20.0115 11.9214 19.7167 13.3434 19.1361 14.6571C18.6008 15.8523 17.8266 16.9253 16.8611 17.8101C14.9872 19.5265 12.5422 20.4853 10.0011 20.5001ZM14.5911 9.24312C14.3375 9.24273 14.0894 9.31758 13.8783 9.45821C13.6672 9.59883 13.5026 9.79892 13.4053 10.0331C13.3079 10.2674 13.2822 10.5252 13.3315 10.774C13.3807 11.0228 13.5027 11.2514 13.6819 11.4309C13.8611 11.6104 14.0895 11.7327 14.3383 11.7823C14.587 11.832 14.8449 11.8067 15.0792 11.7097C15.3136 11.6128 15.5139 11.4484 15.6549 11.2376C15.7959 11.0267 15.8711 10.7788 15.8711 10.5251C15.8711 10.1855 15.7363 9.85968 15.4963 9.61932C15.2563 9.37895 14.9308 9.24365 14.5911 9.24312ZM9.9621 9.24312C9.62632 9.24498 9.30499 9.37993 9.0686 9.61839C8.8322 9.85686 8.70003 10.1793 8.7011 10.5151C8.69951 10.7686 8.77324 11.0169 8.91292 11.2284C9.0526 11.44 9.25195 11.6053 9.48569 11.7034C9.71944 11.8015 9.97705 11.828 10.2259 11.7795C10.4747 11.731 10.7035 11.6097 10.8833 11.4311C11.0631 11.2524 11.1858 11.0243 11.2359 10.7758C11.2859 10.5273 11.2611 10.2695 11.1644 10.0352C11.0678 9.8008 10.9037 9.60042 10.6931 9.45941C10.4824 9.3184 10.2346 9.24313 9.9811 9.24312H9.9621ZM5.3711 9.24312C5.11746 9.24273 4.8694 9.31758 4.65831 9.45821C4.44723 9.59883 4.2826 9.79892 4.18526 10.0331C4.08792 10.2674 4.06225 10.5252 4.11149 10.774C4.16073 11.0228 4.28267 11.2514 4.46188 11.4309C4.64109 11.6104 4.86952 11.7327 5.11826 11.7823C5.36699 11.832 5.62486 11.8067 5.85924 11.7097C6.09361 11.6128 6.29395 11.4484 6.4349 11.2376C6.57586 11.0267 6.6511 10.7788 6.6511 10.5251C6.65084 10.1855 6.51596 9.85992 6.27602 9.61961C6.03609 9.3793 5.71068 9.24392 5.3711 9.24312Z" fill="#FFFEFE"/>
</svg>
