<svg width="21" height="19" viewBox="0 0 21 19" fill="none" xmlns="http://www.w3.org/2000/svg">
<path d="M10.0345 19.0001L9.77551 18.8401C7.48239 17.4164 5.34677 15.7535 3.40451 13.8791C2.06043 12.5203 1.03267 10.8817 0.394514 9.08015C-0.176849 7.3593 -0.126242 5.49251 0.537514 3.80515C0.869668 2.97324 1.38142 2.22494 2.03623 1.61369C2.69104 1.00245 3.47274 0.543335 4.32551 0.269146C4.61399 0.169513 4.91186 0.0994858 5.21451 0.0601464H5.33451C5.61265 0.0194613 5.89342 -0.00059341 6.17451 0.00014639H6.28451C6.90787 0.0184186 7.525 0.129644 8.11551 0.330146H8.17451C8.2076 0.345076 8.23801 0.365347 8.26451 0.390146C8.48279 0.455653 8.69386 0.5431 8.89451 0.651146L9.27451 0.820146C9.37355 0.877212 9.46875 0.940681 9.55951 1.01015C9.61651 1.05215 9.66551 1.08715 9.70451 1.11015L9.74551 1.13415C9.83526 1.18397 9.92177 1.23941 10.0045 1.30015C11.0944 0.457558 12.4329 0.000343061 13.8105 0.00014639H13.8545C14.4862 -0.00433157 15.1144 0.0939513 15.7145 0.291146C16.5614 0.563448 17.3374 1.02009 17.9867 1.62823C18.636 2.23636 19.1424 2.98086 19.4695 3.80815C20.1224 5.49608 20.1771 7.35677 19.6245 9.08015C18.9945 10.8887 17.9662 12.5325 16.6155 13.8901C14.6833 15.7595 12.5611 17.4218 10.2835 18.8501L10.0335 19.0001H10.0345ZM14.9415 3.11815C14.7748 3.1196 14.6125 3.17254 14.477 3.26975C14.3415 3.36695 14.2393 3.50365 14.1845 3.66115C14.1174 3.864 14.132 4.08505 14.2254 4.27725C14.3188 4.46944 14.4835 4.61759 14.6845 4.69015C15.0008 4.8128 15.2724 5.02855 15.4635 5.30888C15.6545 5.58921 15.756 5.92091 15.7545 6.26015V6.29015C15.7345 6.51369 15.8027 6.73619 15.9445 6.91015C16.0889 7.0781 16.2937 7.18231 16.5145 7.20015C16.7166 7.19262 16.9088 7.11099 17.0545 6.97082C17.2002 6.83065 17.2892 6.64175 17.3045 6.44015V6.32115C17.3215 5.64102 17.128 4.97226 16.7502 4.4064C16.3725 3.84055 15.8292 3.40527 15.1945 3.16015C15.1131 3.13228 15.0276 3.11809 14.9415 3.11815Z" fill="#FFFEFE"/>
</svg>
