<svg width="22" height="21" viewBox="0 0 22 21" fill="none" xmlns="http://www.w3.org/2000/svg">
<path d="M5.12869 20.5002C3.94119 20.5096 2.79852 20.0472 1.95161 19.2147C1.1047 18.3823 0.622786 17.2477 0.611694 16.0602L0.611694 4.95023C0.623049 3.75999 1.10624 2.6229 1.95518 1.78858C2.80412 0.954261 3.94944 0.490903 5.13969 0.50023H10.1037C11.2898 0.492769 12.4305 0.955993 13.2755 1.78832C14.1206 2.62065 14.6011 3.75414 14.6117 4.94023V9.73023H8.51169C8.30748 9.73023 8.11163 9.81135 7.96722 9.95576C7.82282 10.1002 7.74169 10.296 7.74169 10.5002C7.74169 10.7044 7.82282 10.9003 7.96722 11.0447C8.11163 11.1891 8.30748 11.2702 8.51169 11.2702H14.6117V16.0502C14.6003 17.2405 14.1172 18.3776 13.2682 19.2119C12.4193 20.0462 11.2739 20.5096 10.0837 20.5002H5.12869ZM17.1517 13.9512C17.0077 13.8064 16.9269 13.6105 16.9269 13.4062C16.9269 13.202 17.0077 13.0061 17.1517 12.8612L18.7517 11.2712H14.6117V9.73023H18.7517L17.1517 8.14023C17.0077 7.9954 16.9269 7.79946 16.9269 7.59523C16.9269 7.391 17.0077 7.19506 17.1517 7.05023C17.2221 6.97719 17.3064 6.91891 17.3996 6.87881C17.4929 6.8387 17.5931 6.81756 17.6946 6.81663C17.7961 6.8157 17.8967 6.83499 17.9906 6.87339C18.0846 6.91178 18.1699 6.96849 18.2417 7.04023L21.1617 9.95023C21.2347 10.022 21.2925 10.1076 21.3319 10.2021C21.3712 10.2965 21.3912 10.3979 21.3907 10.5002C21.3913 10.6011 21.3713 10.701 21.3319 10.7939C21.2925 10.8867 21.2346 10.9705 21.1617 11.0402L18.2417 13.9512C18.1707 14.0239 18.0859 14.0816 17.9924 14.121C17.8988 14.1604 17.7982 14.1807 17.6967 14.1807C17.5951 14.1807 17.4946 14.1604 17.401 14.121C17.3074 14.0816 17.2227 14.0239 17.1517 13.9512Z" fill="#FFFEFE"/>
</svg>
