<svg width="20" height="20" viewBox="0 0 20 20" fill="none" xmlns="http://www.w3.org/2000/svg">
<path d="M0 10C0 8.02219 0.58649 6.08879 1.6853 4.4443C2.78412 2.79981 4.3459 1.51809 6.17317 0.761209C8.00043 0.00433284 10.0111 -0.193701 11.9509 0.192152C13.8907 0.578004 15.6725 1.53041 17.0711 2.92894C18.4696 4.32746 19.422 6.10929 19.8079 8.0491C20.1937 9.98891 19.9957 11.9996 19.2388 13.8268C18.4819 15.6541 17.2002 17.2159 15.5557 18.3147C13.9112 19.4135 11.9778 20 10 20C7.34873 19.9971 4.80688 18.9426 2.93215 17.0679C1.05742 15.1931 0.0029116 12.6513 0 10H0ZM1.5 10C1.5 11.6811 1.99852 13.3245 2.93251 14.7224C3.8665 16.1202 5.19402 17.2096 6.74719 17.853C8.30036 18.4963 10.0094 18.6647 11.6583 18.3367C13.3071 18.0087 14.8217 17.1992 16.0104 16.0104C17.1992 14.8217 18.0087 13.3071 18.3367 11.6583C18.6646 10.0094 18.4963 8.30037 17.853 6.7472C17.2096 5.19402 16.1202 3.8665 14.7223 2.93251C13.3245 1.99852 11.6811 1.5 10 1.5C7.74647 1.50265 5.586 2.39903 3.99252 3.99252C2.39903 5.58601 1.50265 7.74648 1.5 10ZM12.943 10.014C12.943 9.74879 13.0484 9.49443 13.2359 9.3069C13.4234 9.11936 13.6778 9.014 13.943 9.014H13.953C14.1506 9.01499 14.3434 9.07448 14.5072 9.18496C14.671 9.29544 14.7984 9.45196 14.8733 9.63477C14.9482 9.81758 14.9673 10.0185 14.9282 10.2121C14.889 10.4058 14.7934 10.5835 14.6533 10.7229C14.5133 10.8622 14.3351 10.957 14.1413 10.9951C13.9474 11.0333 13.7466 11.0132 13.5642 10.9374C13.3817 10.8616 13.2259 10.7334 13.1162 10.5691C13.0065 10.4047 12.948 10.2116 12.948 10.014H12.943ZM8.934 10.014C8.934 9.74879 9.03936 9.49443 9.22689 9.3069C9.41443 9.11936 9.66878 9.014 9.934 9.014H9.943C10.1408 9.014 10.3341 9.07265 10.4986 9.18254C10.663 9.29242 10.7912 9.4486 10.8669 9.63132C10.9426 9.81405 10.9624 10.0151 10.9238 10.2091C10.8852 10.4031 10.79 10.5813 10.6501 10.7211C10.5103 10.861 10.3321 10.9562 10.1381 10.9948C9.94411 11.0334 9.74304 11.0136 9.56032 10.9379C9.37759 10.8622 9.22141 10.734 9.11153 10.5696C9.00165 10.4051 8.943 10.2118 8.943 10.014H8.934ZM4.924 10.014C4.924 9.74879 5.02936 9.49443 5.21689 9.3069C5.40443 9.11936 5.65878 9.014 5.924 9.014H5.93C6.12757 9.01499 6.32041 9.07448 6.4842 9.18496C6.64799 9.29544 6.77539 9.45196 6.85031 9.63477C6.92523 9.81758 6.94432 10.0185 6.90517 10.2121C6.86602 10.4058 6.77039 10.5835 6.63034 10.7229C6.49029 10.8622 6.3121 10.957 6.11826 10.9951C5.92442 11.0333 5.72361 11.0132 5.54117 10.9374C5.35874 10.8616 5.20285 10.7334 5.09319 10.5691C4.98353 10.4047 4.925 10.2116 4.925 10.014H4.924Z" fill="#FFFEFE"/>
</svg>
