<svg width="21" height="21" viewBox="0 0 21 21" fill="none" xmlns="http://www.w3.org/2000/svg">
<path d="M14.6806 20.9897H5.34057C4.62323 21.0343 3.90428 20.9338 3.22665 20.6943C2.54901 20.4547 1.9266 20.0811 1.39657 19.5957C0.913923 19.0658 0.54256 18.4444 0.304483 17.7683C0.0664071 17.0922 -0.033539 16.3752 0.0105674 15.6597V6.31972C-0.0345134 5.60299 0.064951 4.88451 0.303049 4.20697C0.541148 3.52944 0.91302 2.90669 1.39657 2.37572C1.92753 1.89218 2.55029 1.5203 3.22782 1.28221C3.90535 1.04411 4.62383 0.944643 5.34057 0.989724H14.6706C15.3874 0.945306 16.1059 1.04508 16.7835 1.28314C17.4611 1.5212 18.084 1.89272 18.6156 2.37572C19.1013 2.90554 19.4753 3.52791 19.715 4.20558C19.9546 4.88324 20.0552 5.6023 20.0106 6.31972V15.6597C20.0106 19.0467 18.0676 20.9897 14.6806 20.9897ZM6.34057 10.1497C6.23116 10.1482 6.12257 10.1687 6.0212 10.2099C5.91983 10.2511 5.82774 10.3122 5.75037 10.3895C5.673 10.4669 5.61192 10.559 5.57073 10.6604C5.52955 10.7617 5.50909 10.8703 5.51057 10.9797C5.51029 11.2009 5.59733 11.4132 5.75276 11.5705C5.90819 11.7278 6.11944 11.8174 6.34057 11.8197H9.17057V14.6497C9.17057 14.8699 9.25801 15.081 9.41367 15.2366C9.56932 15.3923 9.78044 15.4797 10.0006 15.4797C10.2207 15.4797 10.4318 15.3923 10.5875 15.2366C10.7431 15.081 10.8306 14.8699 10.8306 14.6497V11.8197H13.6706C13.8869 11.8122 14.0919 11.721 14.2422 11.5654C14.3926 11.4097 14.4767 11.2017 14.4767 10.9852C14.4767 10.7688 14.3926 10.5608 14.2422 10.4051C14.0919 10.2494 13.8869 10.1582 13.6706 10.1507H10.8306V7.32972C10.8306 7.10959 10.7431 6.89848 10.5875 6.74283C10.4318 6.58717 10.2207 6.49972 10.0006 6.49972C9.78044 6.49972 9.56932 6.58717 9.41367 6.74283C9.25801 6.89848 9.17057 7.10959 9.17057 7.32972V10.1497H6.34057Z" fill="#BEFD4F"/>
</svg>
