<svg width="18" height="16" viewBox="0 0 18 16" fill="none" xmlns="http://www.w3.org/2000/svg">
<path d="M5.37897 13.8075L5.37097 13.8015C4.93291 13.4021 4.43907 13.0686 3.90497 12.8115C3.61797 12.7895 3.37197 12.7805 3.15097 12.7745H3.14197C2.36324 12.8363 1.5901 12.6001 0.978966 12.1135C-0.013034 11.2965 -0.00403404 9.5905 0.00096596 8.2195V7.7835C-0.00503404 6.4115 -0.013034 4.7025 0.977966 3.8835C1.59243 3.39514 2.36966 3.15883 3.15197 3.2225H3.20797C3.40797 3.2145 3.64197 3.2065 3.90797 3.1875C4.4367 2.93164 4.92602 2.60128 5.36097 2.2065L5.37697 2.1935C6.40797 1.3735 7.82197 0.248505 9.21997 0.248505C9.66053 0.248515 10.0933 0.36439 10.475 0.584505C10.5063 0.603184 10.5364 0.623895 10.565 0.646505C11.959 1.7405 12.021 3.8055 12.021 7.9995C12.021 12.1935 11.959 14.2585 10.565 15.3545C10.5361 15.377 10.5057 15.3974 10.474 15.4155C10.0923 15.6355 9.65951 15.7514 9.21897 15.7515C7.82997 15.7485 6.46997 14.6725 5.37897 13.8075ZM6.30697 3.3695H6.30197C5.67446 4.00851 4.88382 4.46332 4.01597 4.6845C3.71597 4.7065 3.44997 4.71651 3.20597 4.7255C2.45897 4.7505 2.26897 4.7665 1.93297 5.0445C1.49097 5.4095 1.50097 6.8905 1.50097 7.7765V8.2215C1.50097 9.1075 1.48897 10.5905 1.93197 10.9535C2.26697 11.2305 2.45597 11.2475 3.20197 11.2745C3.40997 11.2795 3.68997 11.2895 4.01497 11.3145C4.88195 11.5334 5.6725 11.9854 6.30097 12.6215L6.30997 12.6285C7.21597 13.3475 8.34497 14.2435 9.20997 14.2435C9.37334 14.2458 9.53498 14.2099 9.68197 14.1385C10.442 13.4795 10.521 11.7625 10.521 7.9995C10.521 4.2365 10.442 2.5205 9.68197 1.8595C9.53428 1.78966 9.37228 1.75541 9.20897 1.7595C8.33997 1.7555 7.21297 2.6485 6.30697 3.3695ZM14.958 12.3355C14.7859 12.2363 14.6601 12.0729 14.6084 11.8811C14.5567 11.6893 14.5831 11.4848 14.682 11.3125C15.2575 10.3032 15.5602 9.16138 15.5602 7.9995C15.5602 6.83763 15.2575 5.69581 14.682 4.6865C14.6283 4.60097 14.5925 4.50548 14.5766 4.40576C14.5607 4.30604 14.5652 4.20414 14.5896 4.10617C14.6141 4.0082 14.6581 3.91619 14.719 3.83564C14.7799 3.75509 14.8564 3.68766 14.944 3.6374C15.0316 3.58715 15.1284 3.55509 15.2287 3.54316C15.3289 3.53123 15.4306 3.53967 15.5275 3.56797C15.6244 3.59628 15.7146 3.64386 15.7927 3.70788C15.8708 3.77189 15.9352 3.85101 15.982 3.9405C16.6875 5.17695 17.0586 6.57593 17.0586 7.9995C17.0586 9.42308 16.6875 10.8221 15.982 12.0585C15.933 12.144 15.8677 12.2191 15.7897 12.2793C15.7117 12.3395 15.6226 12.3838 15.5275 12.4095C15.4323 12.4353 15.3331 12.442 15.2353 12.4293C15.1376 12.4166 15.0434 12.3847 14.958 12.3355Z" fill="#FFFEFE"/>
</svg>
