<svg width="15" height="12" viewBox="0 0 15 12" fill="none" xmlns="http://www.w3.org/2000/svg">
<path d="M7.64215 11.3311C7.60324 11.331 7.56474 11.3227 7.52886 11.3067C7.49297 11.2908 7.4604 11.2674 7.43302 11.2381L5.54331 9.2161C5.51429 9.1862 5.49143 9.15023 5.47619 9.11047C5.46094 9.0707 5.45365 9.02801 5.45476 8.9851C5.45522 8.94247 5.46381 8.90039 5.48 8.86138C5.49619 8.82237 5.51965 8.78724 5.54896 8.7581C6.13334 8.23384 6.87374 7.94621 7.63885 7.94621C8.40397 7.94621 9.14436 8.23384 9.72874 8.7581C9.75866 8.78693 9.78272 8.82193 9.79944 8.86098C9.81616 8.90002 9.8252 8.94228 9.82599 8.98516C9.82679 9.02804 9.81932 9.07064 9.80406 9.11035C9.78879 9.15006 9.76605 9.18605 9.73722 9.2161L7.85128 11.2381C7.8239 11.2674 7.79133 11.2908 7.75544 11.3067C7.71956 11.3227 7.68106 11.331 7.64215 11.3311ZM10.9609 7.7821C10.8855 7.78197 10.8131 7.7512 10.7584 7.6961C9.90487 6.87647 8.79497 6.42262 7.64403 6.42262C6.4931 6.42262 5.3832 6.87647 4.52969 7.6961C4.47501 7.7512 4.40254 7.78197 4.32715 7.7821C4.28864 7.78229 4.25049 7.77434 4.21491 7.75872C4.17933 7.74309 4.14703 7.72011 4.1199 7.6911L3.02715 6.5201C2.99832 6.49012 2.97542 6.45433 2.95979 6.41484C2.94416 6.37535 2.93611 6.33294 2.93611 6.2901C2.93611 6.24726 2.94416 6.20485 2.95979 6.16536C2.97542 6.12586 2.99832 6.09008 3.02715 6.0601C4.28048 4.82387 5.92799 4.13677 7.63885 4.13677C9.34971 4.13677 10.9972 4.82387 12.2506 6.0601C12.2799 6.08983 12.3034 6.1255 12.3195 6.165C12.3357 6.2045 12.3443 6.24703 12.3448 6.2901C12.3451 6.33285 12.3374 6.37523 12.322 6.41474C12.3066 6.45426 12.2839 6.49008 12.2553 6.5201L11.1672 7.6911C11.1402 7.71994 11.108 7.74283 11.0726 7.75845C11.0372 7.77406 10.9993 7.7821 10.9609 7.7821ZM13.4752 5.0891C13.4376 5.08946 13.4004 5.08186 13.3656 5.06675C13.3308 5.05164 13.2992 5.02932 13.2727 5.0011C11.7531 3.46908 9.73738 2.6149 7.64168 2.6149C5.54598 2.6149 3.53028 3.46908 2.0107 5.0011C1.98383 5.02973 1.9519 5.05245 1.91674 5.06795C1.88158 5.08346 1.84388 5.09144 1.80581 5.09144C1.76774 5.09144 1.73004 5.08346 1.69488 5.06795C1.65972 5.05245 1.62779 5.02973 1.60092 5.0011L0.508164 3.8311C0.47988 3.8011 0.457442 3.76548 0.442134 3.72627C0.426825 3.68707 0.418945 3.64504 0.418945 3.6026C0.418945 3.56016 0.426825 3.51813 0.442134 3.47892C0.457442 3.43972 0.47988 3.4041 0.508164 3.3741C2.42774 1.42351 4.9825 0.334717 7.63979 0.334717C10.2971 0.334717 12.8518 1.42351 14.7714 3.3741C14.7997 3.4041 14.8221 3.43972 14.8375 3.47892C14.8528 3.51813 14.8606 3.56016 14.8606 3.6026C14.8606 3.64504 14.8528 3.68707 14.8375 3.72627C14.8221 3.76548 14.7997 3.8011 14.7714 3.8311L13.6777 5.0011C13.6237 5.05755 13.551 5.08917 13.4752 5.0891Z" fill="#FFFEFE"/>
</svg>
