<svg width="536" height="194" viewBox="0 0 536 194" fill="none" xmlns="http://www.w3.org/2000/svg">
<path d="M29.448 11.771L83.397 92.898L25.344 95.711L0.644043 0.0499661C21.05 -0.891034 29.448 11.771 29.448 11.771Z" fill="white"/>
<path d="M29.448 11.771L83.397 92.898L25.344 95.711L0.644043 0.0499661C21.05 -0.891034 29.448 11.771 29.448 11.771Z" fill="url(#paint0_linear_1_19)"/>
<g style="mix-blend-mode:multiply">
<mask id="mask0_1_19" style="mask-type:luminance" maskUnits="userSpaceOnUse" x="0" y="0" width="84" height="96">
<path d="M29.448 11.771L83.397 92.898L25.344 95.711L0.644043 0.0499661C21.05 -0.891034 29.448 11.771 29.448 11.771Z" fill="white"/>
</mask>
<g mask="url(#mask0_1_19)">
<path d="M18.8351 25.7489L4.17102 -16.3801L6.27112 -17.11L49.9821 108.476L47.882 109.207L19.6129 27.97H-12.718V25.7489H18.8351Z" fill="url(#paint1_linear_1_19)"/>
<path d="M21.05 53.0139L35.5671 96.8239H-5.2099L1.98993 53.0139H21.05ZM32.55 94.5999L19.508 55.237H3.92914L-2.54193 94.5999H32.55Z" fill="url(#paint2_linear_1_19)"/>
</g>
</g>
<path d="M20.9421 86.107H462.47V86.141C467.696 86.444 472.882 87.2293 477.963 88.487C503.509 94.287 544.794 116.948 534.063 149.358C528.849 165.11 515.063 171.607 500.233 174.071C494.071 175.03 487.842 175.483 481.606 175.427H462.591C462.549 175.419 462.507 175.411 462.468 175.401V175.427H231.768C213.405 175.427 194.968 175.878 176.674 173.953C163.02 172.515 146.459 171.753 133.297 167.786C95.9791 156.523 59.3591 137.105 23.4471 121.916C14.7561 118.242 4.24103 113.68 4.24103 102.804C4.24063 100.611 4.67232 98.4391 5.51154 96.4129C6.35075 94.3867 7.58106 92.5457 9.13202 90.9951C10.683 89.4445 12.5243 88.2147 14.5507 87.376C16.5771 86.5373 18.7489 86.1061 20.9421 86.107Z" fill="white"/>
<path d="M491.306 110.528C494.245 110.585 497.178 110.542 500.106 110.397L506.454 124.279C506.247 124.297 506.037 124.318 505.828 124.334C500.803 124.758 495.76 124.915 490.718 124.805L491.306 110.528Z" fill="url(#paint3_linear_1_19)"/>
<path d="M503.018 110.221C503.555 110.182 504.094 110.148 504.631 110.101C504.861 110.083 505.095 110.062 505.331 110.041C509.802 109.637 514.248 109.001 518.653 108.135C522.94 111.603 526.698 115.68 529.806 120.235C523.078 121.986 516.23 123.243 509.319 123.998L503.018 110.221Z" fill="url(#paint4_linear_1_19)"/>
<path d="M473.132 121.12C475.222 117.987 477.197 114.809 479.058 111.588C479.359 111.097 479.783 110.694 480.289 110.417C480.794 110.141 481.362 110.001 481.938 110.012C484.156 110.216 486.373 110.361 488.59 110.447L488.008 124.725C483.352 124.536 478.699 124.118 474.05 123.471C472.785 123.291 472.39 122.225 473.132 121.12Z" fill="url(#paint5_linear_1_19)"/>
<path d="M425.838 111.485H440.015C440.864 111.485 441.678 111.822 442.278 112.422C442.878 113.022 443.215 113.836 443.215 114.685V146.015C443.215 146.435 443.132 146.851 442.971 147.24C442.811 147.628 442.575 147.981 442.278 148.278C441.981 148.575 441.628 148.811 441.24 148.971C440.851 149.132 440.435 149.215 440.015 149.215H425.839C425.419 149.215 425.003 149.132 424.615 148.971C424.226 148.81 423.874 148.574 423.577 148.276C423.28 147.979 423.045 147.626 422.885 147.237C422.725 146.849 422.643 146.432 422.644 146.012V114.679C422.644 113.832 422.981 113.019 423.58 112.42C424.179 111.821 424.991 111.485 425.838 111.485Z" fill="url(#paint6_linear_1_19)"/>
<path d="M99.749 111.485H113.929C114.778 111.485 115.592 111.822 116.192 112.422C116.792 113.022 117.129 113.836 117.129 114.685V146.011C117.129 146.86 116.792 147.674 116.192 148.274C115.592 148.874 114.778 149.211 113.929 149.211H99.744C99.3241 149.211 98.9083 149.128 98.5204 148.967C98.1325 148.807 97.7801 148.571 97.4834 148.274C97.1867 147.977 96.9514 147.624 96.7911 147.236C96.6307 146.848 96.5485 146.432 96.549 146.012V114.685C96.549 113.836 96.8862 113.022 97.4863 112.422C98.0864 111.822 98.9003 111.485 99.749 111.485Z" fill="url(#paint7_linear_1_19)"/>
<path d="M397.628 119.311H403.015C403.336 119.312 403.644 119.44 403.871 119.668C404.098 119.895 404.225 120.204 404.225 120.525V132.425C404.224 132.745 404.096 133.053 403.869 133.279C403.643 133.506 403.336 133.633 403.015 133.634H397.627C397.468 133.634 397.31 133.603 397.163 133.542C397.016 133.481 396.882 133.391 396.77 133.279C396.657 133.166 396.568 133.032 396.507 132.885C396.446 132.738 396.415 132.58 396.415 132.421V120.524C396.415 120.202 396.543 119.894 396.77 119.666C396.998 119.439 397.306 119.311 397.628 119.311Z" fill="url(#paint8_linear_1_19)"/>
<path d="M380.981 119.311H386.367C386.689 119.311 386.997 119.439 387.225 119.667C387.452 119.895 387.58 120.203 387.58 120.525V132.425C387.579 132.746 387.451 133.054 387.224 133.28C386.996 133.507 386.688 133.634 386.367 133.634H380.981C380.659 133.634 380.35 133.506 380.123 133.278C379.895 133.051 379.767 132.742 379.767 132.42V120.525C379.767 120.203 379.895 119.894 380.123 119.667C380.35 119.439 380.659 119.311 380.981 119.311Z" fill="url(#paint9_linear_1_19)"/>
<path d="M364.339 119.311H369.72C370.042 119.311 370.351 119.439 370.578 119.667C370.806 119.894 370.934 120.203 370.934 120.525V132.425C370.933 132.745 370.806 133.052 370.579 133.279C370.353 133.505 370.046 133.633 369.726 133.634H364.338C364.179 133.634 364.021 133.603 363.874 133.542C363.727 133.481 363.593 133.391 363.481 133.279C363.368 133.166 363.279 133.032 363.218 132.885C363.157 132.738 363.126 132.58 363.126 132.421V120.524C363.126 120.202 363.254 119.894 363.481 119.666C363.709 119.439 364.017 119.311 364.339 119.311Z" fill="url(#paint10_linear_1_19)"/>
<path d="M353.076 119.311H347.691C347.021 119.311 346.477 119.854 346.477 120.525V132.42C346.477 133.09 347.021 133.634 347.691 133.634H353.076C353.746 133.634 354.29 133.09 354.29 132.42V120.525C354.29 119.854 353.746 119.311 353.076 119.311Z" fill="url(#paint11_linear_1_19)"/>
<path d="M331.043 119.311H336.425C336.747 119.311 337.056 119.439 337.283 119.667C337.511 119.894 337.639 120.203 337.639 120.525V132.42C337.639 132.579 337.608 132.737 337.547 132.885C337.486 133.032 337.396 133.166 337.283 133.278C337.171 133.391 337.037 133.481 336.89 133.542C336.742 133.603 336.584 133.634 336.425 133.634H331.043C330.884 133.634 330.726 133.603 330.579 133.542C330.432 133.481 330.298 133.391 330.186 133.279C330.073 133.166 329.984 133.032 329.923 132.885C329.862 132.738 329.831 132.58 329.831 132.421V120.523C329.831 120.202 329.959 119.893 330.186 119.666C330.413 119.439 330.722 119.311 331.043 119.311Z" fill="url(#paint12_linear_1_19)"/>
<path d="M252.873 119.311H258.259C258.58 119.312 258.888 119.44 259.115 119.668C259.342 119.895 259.469 120.204 259.469 120.525V132.419C259.469 132.74 259.342 133.049 259.115 133.276C258.888 133.504 258.58 133.633 258.259 133.634H252.871C252.712 133.634 252.554 133.603 252.407 133.542C252.26 133.481 252.126 133.391 252.014 133.279C251.901 133.166 251.812 133.032 251.751 132.885C251.69 132.738 251.659 132.58 251.659 132.421V120.525C251.659 120.203 251.787 119.894 252.015 119.667C252.242 119.439 252.551 119.311 252.873 119.311Z" fill="url(#paint13_linear_1_19)"/>
<path d="M236.226 119.311H241.613C241.934 119.312 242.242 119.44 242.469 119.668C242.696 119.895 242.823 120.204 242.823 120.525V132.425C242.822 132.746 242.694 133.053 242.468 133.279C242.241 133.506 241.934 133.633 241.613 133.634H236.225C236.066 133.634 235.908 133.603 235.761 133.542C235.614 133.481 235.48 133.391 235.368 133.279C235.255 133.166 235.166 133.032 235.105 132.885C235.044 132.738 235.013 132.58 235.013 132.421V120.524C235.013 120.202 235.141 119.894 235.368 119.666C235.596 119.439 235.904 119.311 236.226 119.311Z" fill="url(#paint14_linear_1_19)"/>
<path d="M219.581 119.311H224.967C225.288 119.312 225.596 119.44 225.823 119.668C226.05 119.895 226.177 120.204 226.177 120.525V132.42C226.177 132.741 226.05 133.049 225.823 133.277C225.596 133.505 225.288 133.633 224.967 133.634H219.579C219.42 133.634 219.262 133.603 219.115 133.542C218.968 133.481 218.834 133.391 218.722 133.279C218.609 133.166 218.52 133.032 218.459 132.885C218.398 132.738 218.367 132.58 218.367 132.421V120.525C218.367 120.203 218.495 119.894 218.723 119.667C218.95 119.439 219.259 119.311 219.581 119.311Z" fill="url(#paint15_linear_1_19)"/>
<path d="M202.932 119.311H208.318C208.64 119.311 208.948 119.439 209.176 119.667C209.403 119.895 209.531 120.203 209.531 120.525V132.42C209.531 132.742 209.403 133.05 209.176 133.278C208.948 133.506 208.64 133.634 208.318 133.634H202.93C202.771 133.634 202.613 133.603 202.466 133.542C202.319 133.481 202.185 133.391 202.073 133.279C201.96 133.166 201.871 133.032 201.81 132.885C201.749 132.738 201.718 132.58 201.718 132.421V120.525C201.718 120.203 201.846 119.894 202.074 119.667C202.301 119.439 202.61 119.311 202.932 119.311Z" fill="url(#paint16_linear_1_19)"/>
<path d="M186.289 119.311H191.675C191.996 119.312 192.304 119.44 192.531 119.668C192.758 119.895 192.885 120.204 192.885 120.525V132.425C192.884 132.746 192.756 133.053 192.53 133.279C192.303 133.506 191.996 133.633 191.675 133.634H186.287C186.128 133.634 185.97 133.603 185.823 133.542C185.676 133.481 185.542 133.391 185.43 133.279C185.317 133.166 185.228 133.032 185.167 132.885C185.106 132.738 185.075 132.58 185.075 132.421V120.525C185.075 120.203 185.203 119.894 185.431 119.667C185.658 119.439 185.967 119.311 186.289 119.311Z" fill="url(#paint17_linear_1_19)"/>
<path d="M459.292 88.676H457.885V172.017H459.292V88.676Z" fill="url(#paint18_linear_1_19)"/>
<path d="M75.911 88.676H74.504V140.116H75.911V88.676Z" fill="url(#paint19_linear_1_19)"/>
<path d="M295.426 88.676H294.019V172.017H295.426V88.676Z" fill="url(#paint20_linear_1_19)"/>
<path d="M468.036 141.947C468.036 141.584 467.928 141.23 467.727 140.928C467.525 140.627 467.239 140.392 466.904 140.253C466.569 140.115 466.2 140.078 465.845 140.149C465.489 140.22 465.163 140.395 464.906 140.652C464.65 140.908 464.476 141.235 464.405 141.591C464.335 141.946 464.371 142.315 464.51 142.65C464.649 142.985 464.884 143.271 465.186 143.472C465.488 143.673 465.842 143.78 466.205 143.78C466.691 143.779 467.157 143.586 467.5 143.242C467.843 142.899 468.036 142.433 468.036 141.947ZM466.205 146.962C466.567 146.963 466.921 147.071 467.223 147.272C467.524 147.474 467.758 147.761 467.896 148.096C468.035 148.431 468.07 148.799 467.999 149.154C467.928 149.51 467.754 149.836 467.497 150.092C467.241 150.348 466.914 150.522 466.558 150.593C466.203 150.663 465.835 150.627 465.5 150.488C465.165 150.349 464.879 150.114 464.678 149.813C464.476 149.512 464.369 149.157 464.369 148.795C464.369 148.554 464.416 148.315 464.508 148.093C464.601 147.87 464.736 147.667 464.906 147.497C465.077 147.327 465.279 147.192 465.502 147.1C465.725 147.008 465.964 146.961 466.205 146.962Z" fill="url(#paint21_linear_1_19)"/>
<path d="M292.031 119.311H297.418C297.739 119.312 298.047 119.44 298.274 119.668C298.501 119.895 298.628 120.204 298.628 120.525V132.419C298.628 132.74 298.501 133.049 298.274 133.276C298.047 133.504 297.739 133.633 297.418 133.634H292.03C291.871 133.634 291.713 133.603 291.566 133.542C291.419 133.481 291.285 133.391 291.173 133.279C291.06 133.166 290.971 133.032 290.91 132.885C290.849 132.738 290.818 132.58 290.818 132.421V120.524C290.818 120.202 290.946 119.894 291.173 119.666C291.401 119.439 291.709 119.311 292.031 119.311Z" fill="url(#paint22_linear_1_19)"/>
<mask id="mask1_1_19" style="mask-type:luminance" maskUnits="userSpaceOnUse" x="4" y="86" width="532" height="90">
<path d="M20.9421 86.107H462.47V86.141C467.696 86.444 472.882 87.2293 477.963 88.487C503.509 94.287 544.794 116.948 534.063 149.358C528.849 165.11 515.063 171.607 500.233 174.071C494.071 175.03 487.842 175.483 481.606 175.427H462.591C462.549 175.419 462.507 175.411 462.468 175.401V175.427H231.768C213.405 175.427 194.968 175.878 176.674 173.953C163.02 172.515 146.459 171.753 133.297 167.786C95.9791 156.523 59.3591 137.105 23.4471 121.916C14.7561 118.242 4.24103 113.68 4.24103 102.804C4.24063 100.611 4.67232 98.4391 5.51154 96.4129C6.35075 94.3867 7.58106 92.5457 9.13202 90.9951C10.683 89.4445 12.5243 88.2147 14.5507 87.376C16.5771 86.5373 18.7489 86.1061 20.9421 86.107Z" fill="white"/>
</mask>
<g mask="url(#mask1_1_19)">
<path d="M569.907 153.216H0.882019V181.78H569.907V153.216Z" fill="url(#paint23_linear_1_19)"/>
</g>
<path d="M127.549 75.9539L184.196 128.335L306.678 159.721L304.955 175.413H224.773L141.139 129.482C132.139 123.168 129.847 115.32 129.847 115.32L105.347 70.92C119.131 70.921 127.549 75.9539 127.549 75.9539Z" fill="url(#paint24_linear_1_19)"/>
<mask id="mask2_1_19" style="mask-type:luminance" maskUnits="userSpaceOnUse" x="105" y="70" width="202" height="106">
<path d="M127.549 75.9539L184.196 128.335L306.678 159.721L304.955 175.413H224.773L141.139 129.482C132.139 123.168 129.847 115.32 129.847 115.32L105.347 70.92C119.131 70.921 127.549 75.9539 127.549 75.9539Z" fill="white"/>
</mask>
<g mask="url(#mask2_1_19)">
<path d="M165.688 49.787C165.688 49.787 240.404 128.096 189.23 127.559C178.014 127.444 166.562 126.959 155.576 124.492C152.544 123.787 149.563 122.878 146.654 121.771C140.183 119.371 135.86 111.771 132.408 106.229L107.228 64.321L165.688 49.787Z" fill="url(#paint25_linear_1_19)"/>
</g>
<path d="M24.1641 94.074L54.874 108.838L22.5859 106.438L4.24304 92.159C4.24304 92.159 17.8421 91.642 24.1641 94.074Z" fill="url(#paint26_linear_1_19)"/>
<path style="mix-blend-mode:multiply" d="M127.549 75.9539L184.196 128.335L306.678 159.721L304.955 175.413H224.773L141.139 129.482C132.139 123.168 129.847 115.32 129.847 115.32L105.347 70.92C119.131 70.921 127.549 75.9539 127.549 75.9539Z" fill="url(#paint27_linear_1_19)"/>
<path d="M293.228 153.212H331.305V193.855H293.228C288.055 193.854 283.094 191.798 279.436 188.14C275.778 184.481 273.722 179.52 273.721 174.347V172.723C273.721 170.161 274.225 167.624 275.205 165.257C276.185 162.89 277.622 160.739 279.434 158.927C281.245 157.116 283.396 155.678 285.762 154.698C288.129 153.717 290.666 153.212 293.228 153.212Z" fill="white"/>
<path d="M293.228 153.212H331.305V193.855H293.228C288.055 193.854 283.094 191.798 279.436 188.14C275.778 184.481 273.722 179.52 273.721 174.347V172.723C273.721 170.161 274.225 167.624 275.205 165.257C276.185 162.89 277.622 160.739 279.434 158.927C281.245 157.116 283.396 155.678 285.762 154.698C288.129 153.717 290.666 153.212 293.228 153.212Z" fill="url(#paint28_linear_1_19)"/>
<path d="M339.191 153.217H331.304V193.859H339.191V153.217Z" fill="white"/>
<defs>
<linearGradient id="paint0_linear_1_19" x1="42.0205" y1="95.711" x2="42.0205" y2="0" gradientUnits="userSpaceOnUse">
<stop stop-color="#FF4545"/>
<stop offset="0.984" stop-color="#D11919"/>
</linearGradient>
<linearGradient id="paint1_linear_1_19" x1="18.632" y1="109.207" x2="18.632" y2="-17.11" gradientUnits="userSpaceOnUse">
<stop offset="0.005" stop-color="white"/>
<stop offset="1" stop-color="#9AE2FB"/>
</linearGradient>
<linearGradient id="paint2_linear_1_19" x1="-750.083" y1="53.0139" x2="-750.083" y2="53.0139" gradientUnits="userSpaceOnUse">
<stop offset="0.005" stop-color="white"/>
<stop offset="1" stop-color="#9AE2FB"/>
</linearGradient>
<linearGradient id="paint3_linear_1_19" x1="498.586" y1="124.839" x2="498.586" y2="110.397" gradientUnits="userSpaceOnUse">
<stop stop-color="#2B4BBC"/>
<stop offset="0.995" stop-color="#152783"/>
</linearGradient>
<linearGradient id="paint4_linear_1_19" x1="516.412" y1="123.998" x2="516.412" y2="108.135" gradientUnits="userSpaceOnUse">
<stop stop-color="#2B4BBC"/>
<stop offset="0.995" stop-color="#152783"/>
</linearGradient>
<linearGradient id="paint5_linear_1_19" x1="480.675" y1="124.725" x2="480.675" y2="110.011" gradientUnits="userSpaceOnUse">
<stop stop-color="#2B4BBC"/>
<stop offset="0.995" stop-color="#152783"/>
</linearGradient>
<linearGradient id="paint6_linear_1_19" x1="432.93" y1="149.215" x2="432.93" y2="111.485" gradientUnits="userSpaceOnUse">
<stop offset="0.005" stop-color="white"/>
<stop offset="1" stop-color="#9AE2FB"/>
</linearGradient>
<linearGradient id="paint7_linear_1_19" x1="106.839" y1="149.211" x2="106.839" y2="111.485" gradientUnits="userSpaceOnUse">
<stop offset="0.005" stop-color="white"/>
<stop offset="1" stop-color="#9AE2FB"/>
</linearGradient>
<linearGradient id="paint8_linear_1_19" x1="400.32" y1="133.634" x2="400.32" y2="119.311" gradientUnits="userSpaceOnUse">
<stop stop-color="#2B4BBC"/>
<stop offset="0.995" stop-color="#152783"/>
</linearGradient>
<linearGradient id="paint9_linear_1_19" x1="383.674" y1="133.634" x2="383.674" y2="119.311" gradientUnits="userSpaceOnUse">
<stop stop-color="#2B4BBC"/>
<stop offset="0.995" stop-color="#152783"/>
</linearGradient>
<linearGradient id="paint10_linear_1_19" x1="367.03" y1="133.634" x2="367.03" y2="119.311" gradientUnits="userSpaceOnUse">
<stop stop-color="#2B4BBC"/>
<stop offset="0.995" stop-color="#152783"/>
</linearGradient>
<linearGradient id="paint11_linear_1_19" x1="350.384" y1="133.634" x2="350.384" y2="119.311" gradientUnits="userSpaceOnUse">
<stop stop-color="#2B4BBC"/>
<stop offset="0.995" stop-color="#152783"/>
</linearGradient>
<linearGradient id="paint12_linear_1_19" x1="333.735" y1="133.634" x2="333.735" y2="119.311" gradientUnits="userSpaceOnUse">
<stop stop-color="#2B4BBC"/>
<stop offset="0.995" stop-color="#152783"/>
</linearGradient>
<linearGradient id="paint13_linear_1_19" x1="255.564" y1="133.634" x2="255.564" y2="119.311" gradientUnits="userSpaceOnUse">
<stop stop-color="#2B4BBC"/>
<stop offset="0.995" stop-color="#152783"/>
</linearGradient>
<linearGradient id="paint14_linear_1_19" x1="238.918" y1="133.634" x2="238.918" y2="119.311" gradientUnits="userSpaceOnUse">
<stop stop-color="#2B4BBC"/>
<stop offset="0.995" stop-color="#152783"/>
</linearGradient>
<linearGradient id="paint15_linear_1_19" x1="222.272" y1="133.634" x2="222.272" y2="119.311" gradientUnits="userSpaceOnUse">
<stop stop-color="#2B4BBC"/>
<stop offset="0.995" stop-color="#152783"/>
</linearGradient>
<linearGradient id="paint16_linear_1_19" x1="205.625" y1="133.634" x2="205.625" y2="119.311" gradientUnits="userSpaceOnUse">
<stop stop-color="#2B4BBC"/>
<stop offset="0.995" stop-color="#152783"/>
</linearGradient>
<linearGradient id="paint17_linear_1_19" x1="188.98" y1="133.634" x2="188.98" y2="119.311" gradientUnits="userSpaceOnUse">
<stop stop-color="#2B4BBC"/>
<stop offset="0.995" stop-color="#152783"/>
</linearGradient>
<linearGradient id="paint18_linear_1_19" x1="458.589" y1="172.017" x2="458.589" y2="88.676" gradientUnits="userSpaceOnUse">
<stop offset="0.005" stop-color="white"/>
<stop offset="1" stop-color="#9AE2FB"/>
</linearGradient>
<linearGradient id="paint19_linear_1_19" x1="75.2075" y1="88.676" x2="75.2075" y2="88.676" gradientUnits="userSpaceOnUse">
<stop offset="0.005" stop-color="white"/>
<stop offset="1" stop-color="#9AE2FB"/>
</linearGradient>
<linearGradient id="paint20_linear_1_19" x1="294.723" y1="88.676" x2="294.723" y2="88.676" gradientUnits="userSpaceOnUse">
<stop offset="0.005" stop-color="white"/>
<stop offset="1" stop-color="#9AE2FB"/>
</linearGradient>
<linearGradient id="paint21_linear_1_19" x1="466.203" y1="140.114" x2="466.203" y2="140.114" gradientUnits="userSpaceOnUse">
<stop offset="0.005" stop-color="white"/>
<stop offset="1" stop-color="#9AE2FB"/>
</linearGradient>
<linearGradient id="paint22_linear_1_19" x1="294.723" y1="133.634" x2="294.723" y2="119.311" gradientUnits="userSpaceOnUse">
<stop stop-color="#2B4BBC"/>
<stop offset="0.995" stop-color="#152783"/>
</linearGradient>
<linearGradient id="paint23_linear_1_19" x1="285.395" y1="181.78" x2="285.395" y2="153.216" gradientUnits="userSpaceOnUse">
<stop stop-color="#9AE2FB"/>
<stop offset="0.995" stop-color="white"/>
</linearGradient>
<linearGradient id="paint24_linear_1_19" x1="206.013" y1="175.413" x2="206.013" y2="70.92" gradientUnits="userSpaceOnUse">
<stop stop-color="#9AE2FB"/>
<stop offset="0.995" stop-color="white"/>
</linearGradient>
<linearGradient id="paint25_linear_1_19" x1="157.187" y1="127.562" x2="157.187" y2="49.787" gradientUnits="userSpaceOnUse">
<stop stop-color="#FF4545"/>
<stop offset="0.984" stop-color="#D11919"/>
</linearGradient>
<linearGradient id="paint26_linear_1_19" x1="29.5585" y1="108.838" x2="29.5585" y2="92.1129" gradientUnits="userSpaceOnUse">
<stop stop-color="#FF4545"/>
<stop offset="0.984" stop-color="#D11919"/>
</linearGradient>
<linearGradient id="paint27_linear_1_19" x1="206.013" y1="174.055" x2="206.013" y2="143.543" gradientUnits="userSpaceOnUse">
<stop stop-color="#9AE2FB"/>
<stop offset="0.989" stop-color="white" stop-opacity="0"/>
</linearGradient>
<linearGradient id="paint28_linear_1_19" x1="302.513" y1="193.855" x2="302.513" y2="153.212" gradientUnits="userSpaceOnUse">
<stop offset="0.005" stop-color="white"/>
<stop offset="1" stop-color="#9AE2FB"/>
</linearGradient>
</defs>
</svg>
