<svg width="305" height="69" viewBox="0 0 305 69" fill="none" xmlns="http://www.w3.org/2000/svg">
<path d="M16.5324 76.9053C19.1302 76.9034 21.6914 77.5161 24.0072 78.6933C21.8672 73.5975 21.7803 67.8716 23.7645 62.7131C25.7488 57.5546 29.6508 53.363 34.6542 51.015C39.6576 48.667 45.3749 48.3443 50.6107 50.1146C55.8465 51.8848 60.1952 55.6108 62.7472 60.5133C64.2629 57.003 66.4906 53.8455 69.2894 51.2405C72.0883 48.6355 75.3973 46.6398 79.0072 45.3795C82.6171 44.1193 86.4494 43.6219 90.2614 43.919C94.0734 44.2161 97.7821 45.3011 101.153 47.1053C99.5885 43.7059 99.2238 39.8761 100.119 36.2423C101.013 32.6086 103.114 29.386 106.079 27.1017C109.043 24.8174 112.695 23.6067 116.437 23.6675C120.178 23.7283 123.789 25.057 126.677 27.4363C126.359 25.2468 126.483 23.0156 127.043 20.875C127.603 18.7344 128.587 16.7281 129.937 14.975C131.287 13.2218 132.975 11.7575 134.901 10.6689C136.827 9.58038 138.953 8.88969 141.151 8.63782C143.349 8.38595 145.575 8.57805 147.698 9.2027C149.82 9.82734 151.796 10.8718 153.507 12.2742C155.219 13.6766 156.631 15.4084 157.661 17.3668C158.69 19.3253 159.316 21.4705 159.501 23.6754C162.762 21.5381 166.545 20.3319 170.441 20.1871C174.338 20.0422 178.2 20.9641 181.61 22.8533C181.585 22.4253 181.569 21.9953 181.569 21.5613C181.55 18.7368 182.09 15.9364 183.157 13.3214C184.225 10.7063 185.799 8.32818 187.789 6.3241C189.78 4.32001 192.147 2.72954 194.755 1.64417C197.362 0.558792 200.159 0 202.984 0C205.808 0 208.605 0.558792 211.213 1.64417C213.82 2.72954 216.188 4.32001 218.178 6.3241C220.169 8.32818 221.743 10.7063 222.81 13.3214C223.878 15.9364 224.418 18.7368 224.398 21.5613C224.398 22.1413 224.368 22.7133 224.321 23.2813C224.665 23.2653 225.011 23.2543 225.359 23.2543C230.255 23.2551 235.002 24.9326 238.811 28.0075C242.62 31.0824 245.261 35.3693 246.294 40.1544C251.586 36.146 258.144 34.1776 264.768 34.6096C271.392 35.0415 277.64 37.8449 282.366 42.5065C287.092 47.1681 289.981 53.376 290.504 59.9937C291.027 66.6114 289.149 73.1961 285.214 78.5424C289.493 77.9117 293.849 78.9836 297.347 81.528C300.845 84.0724 303.206 87.8867 303.924 92.1522C304.642 96.4177 303.659 100.795 301.186 104.344C298.714 107.893 294.948 110.331 290.698 111.135L292.98 116.387L293.47 134.947C293.47 134.947 16.5322 139.832 17.9972 136.414C18.7202 134.725 20.1573 121.836 21.4293 109.223C19.1559 109.928 16.7569 110.134 14.3966 109.827C12.0363 109.519 9.77025 108.706 7.75331 107.442C5.73636 106.178 4.0161 104.493 2.71021 102.503C1.40433 100.513 0.543548 98.2647 0.186777 95.9113C-0.169994 93.5579 -0.0144272 91.1552 0.642954 88.8675C1.30033 86.5798 2.44404 84.4611 3.99574 82.6561C5.54743 80.8512 7.47053 79.4025 9.63368 78.4093C11.7968 77.4161 14.1489 76.9017 16.5292 76.9013L16.5324 76.9053Z" fill="url(#paint0_linear_1_85)"/>
<defs>
<linearGradient id="paint0_linear_1_85" x1="-5964.75" y1="76.7966" x2="-5964.75" y2="19.9561" gradientUnits="userSpaceOnUse">
<stop stop-color="white" stop-opacity="0"/>
<stop offset="0.099" stop-color="white" stop-opacity="0.067"/>
<stop offset="0.294" stop-color="white" stop-opacity="0.239"/>
<stop offset="0.568" stop-color="white" stop-opacity="0.522"/>
<stop offset="0.907" stop-color="white" stop-opacity="0.902"/>
<stop offset="0.989" stop-color="white"/>
</linearGradient>
</defs>
</svg>
