<svg width="10" height="9" viewBox="0 0 10 9" fill="none" xmlns="http://www.w3.org/2000/svg">
<path d="M9.1475 0.659999L8.955 2.1125C8.47667 2.0775 8.115 2.17083 7.87 2.3925C7.625 2.61417 7.4675 2.9175 7.3975 3.3025C7.3275 3.6875 7.31 4.11333 7.345 4.58H9.1475V8.535H5.7175V4.055C5.7175 2.83 6.015 1.90833 6.61 1.29C7.21667 0.659999 8.0625 0.449999 9.1475 0.659999ZM4.23 0.659999L4.0375 2.1125C3.55917 2.0775 3.1975 2.17083 2.9525 2.3925C2.7075 2.61417 2.55 2.9175 2.48 3.3025C2.41 3.6875 2.3925 4.11333 2.4275 4.58H4.23V8.535H0.8V4.055C0.8 2.83 1.0975 1.90833 1.6925 1.29C2.29917 0.659999 3.145 0.449999 4.23 0.659999Z" fill="black"/>
</svg>
