<svg width="10" height="9" viewBox="0 0 10 9" fill="none" xmlns="http://www.w3.org/2000/svg">
<path d="M0.852501 8.34L1.045 6.8875C1.52333 6.9225 1.885 6.82917 2.13 6.6075C2.375 6.38583 2.5325 6.0825 2.6025 5.6975C2.6725 5.3125 2.69 4.88667 2.655 4.42L0.852501 4.42L0.852501 0.464999L4.2825 0.465L4.2825 4.945C4.2825 6.17 3.985 7.09167 3.39 7.71C2.78333 8.34 1.9375 8.55 0.852501 8.34ZM5.77 8.34L5.9625 6.8875C6.44083 6.9225 6.8025 6.82917 7.0475 6.6075C7.2925 6.38583 7.45 6.0825 7.52 5.6975C7.59 5.3125 7.6075 4.88667 7.5725 4.42L5.77 4.42L5.77 0.465L9.2 0.465L9.2 4.945C9.2 6.17 8.9025 7.09167 8.3075 7.71C7.70083 8.34 6.855 8.55 5.77 8.34Z" fill="black"/>
</svg>
