<svg width="95" height="29" viewBox="0 0 95 29" fill="none" xmlns="http://www.w3.org/2000/svg">
<path d="M94.7789 28.3854C94.6817 26.6184 94.1155 24.9092 93.1387 23.4335C92.1618 21.9579 90.8096 20.7691 89.2209 19.9893C87.6323 19.2095 85.8646 18.867 84.0997 18.9969C82.3348 19.1268 80.6363 19.7245 79.179 20.7284C78.412 18.3581 77.0221 16.2375 75.1547 14.5885C73.2872 12.9395 71.0108 11.8227 68.5638 11.355C66.1169 10.8872 63.5892 11.0857 61.2452 11.9297C58.9013 12.7737 56.8271 14.2321 55.24 16.1524C54.4118 11.3497 51.8116 7.03253 47.9535 4.05473C44.0954 1.07693 39.2603 -0.344709 34.4044 0.0709346C29.5485 0.486578 25.0254 2.70923 21.7295 6.29939C18.4336 9.88954 16.6049 14.5858 16.605 19.4594C16.6062 20.1874 16.6469 20.9148 16.7269 21.6384C15.3417 20.3477 13.6172 19.4788 11.7556 19.1336C9.894 18.7883 7.97245 18.9812 6.21655 19.6894C4.46066 20.3977 2.94326 21.592 1.84216 23.1322C0.741062 24.6725 0.101994 26.4948 0 28.3854H94.7789Z" fill="url(#paint0_linear_1_77)"/>
<defs>
<linearGradient id="paint0_linear_1_77" x1="47.3895" y1="29.3505" x2="47.3895" y2="-0.681251" gradientUnits="userSpaceOnUse">
<stop stop-color="white" stop-opacity="0"/>
<stop offset="0.099" stop-color="white" stop-opacity="0.067"/>
<stop offset="0.294" stop-color="white" stop-opacity="0.239"/>
<stop offset="0.568" stop-color="white" stop-opacity="0.522"/>
<stop offset="0.907" stop-color="white" stop-opacity="0.902"/>
<stop offset="0.989" stop-color="white"/>
</linearGradient>
</defs>
</svg>
