<svg width="30" height="9" viewBox="0 0 30 9" fill="none" xmlns="http://www.w3.org/2000/svg">
<path d="M0 8.80586C0.0298092 8.25655 0.205491 7.7251 0.509033 7.26631C0.812575 6.80751 1.23303 6.43795 1.72693 6.19569C2.22083 5.95342 2.77037 5.8472 3.31897 5.88801C3.86757 5.92882 4.3954 6.11516 4.84802 6.42784C5.08663 5.69162 5.51865 5.03302 6.09888 4.52088C6.6791 4.00875 7.38621 3.66191 8.14636 3.51658C8.90651 3.37126 9.6917 3.43281 10.4199 3.69479C11.1481 3.95677 11.7927 4.40956 12.286 5.00584C12.5459 3.51644 13.3545 2.17851 14.5522 1.25593C15.75 0.333349 17.2501 -0.106893 18.7565 0.0220296C20.2629 0.150952 21.6662 0.839677 22.6898 1.95237C23.7134 3.06507 24.283 4.52095 24.286 6.03285C24.2865 6.25906 24.2739 6.48511 24.248 6.70985C24.6787 6.30818 25.215 6.03776 25.7941 5.93037C26.3731 5.82298 26.9708 5.88309 27.5168 6.10362C28.0629 6.32415 28.5346 6.69592 28.8767 7.1753C29.2188 7.65469 29.417 8.22175 29.448 8.80986L0 8.80586Z" fill="url(#paint0_linear_1_82)"/>
<defs>
<linearGradient id="paint0_linear_1_82" x1="787.057" y1="9.10939" x2="787.057" y2="-0.211437" gradientUnits="userSpaceOnUse">
<stop stop-color="white" stop-opacity="0"/>
<stop offset="0.099" stop-color="white" stop-opacity="0.067"/>
<stop offset="0.294" stop-color="white" stop-opacity="0.239"/>
<stop offset="0.568" stop-color="white" stop-opacity="0.522"/>
<stop offset="0.907" stop-color="white" stop-opacity="0.902"/>
<stop offset="0.989" stop-color="white"/>
</linearGradient>
</defs>
</svg>
