<svg width="57" height="17" viewBox="0 0 57 17" fill="none" xmlns="http://www.w3.org/2000/svg">
<path d="M57 17C56.9415 15.9417 56.601 14.9181 56.0135 14.0343C55.4261 13.1506 54.6128 12.4386 53.6574 11.9716C52.702 11.5046 51.639 11.2994 50.5775 11.3772C49.5161 11.455 48.4946 11.813 47.6182 12.4142C47.1569 10.9947 46.3211 9.72463 45.198 8.73705C44.0749 7.74946 42.7059 7.08061 41.2343 6.80048C39.7626 6.52034 38.2425 6.63923 36.8329 7.14469C35.4232 7.65015 34.1758 8.52361 33.2213 9.67367C32.7232 6.7973 31.1595 4.21178 28.8392 2.42837C26.5189 0.644973 23.6111 -0.206446 20.6908 0.0424826C17.7705 0.291411 15.0503 1.62256 13.0681 3.7727C11.0859 5.92284 9.98617 8.73542 9.98623 11.6542C9.98695 12.0902 10.0114 12.5259 10.0596 12.9592C9.2265 12.1862 8.1894 11.6658 7.06982 11.4591C5.95024 11.2523 4.79463 11.3678 3.73863 11.792C2.68264 12.2162 1.77008 12.9314 1.10788 13.8539C0.445674 14.7763 0.0613393 15.8677 0 17H57Z" fill="url(#paint0_linear_1_78)"/>
<defs>
<linearGradient id="paint0_linear_1_78" x1="28.5" y1="17.578" x2="28.5" y2="-0.408" gradientUnits="userSpaceOnUse">
<stop stop-color="white" stop-opacity="0"/>
<stop offset="0.099" stop-color="white" stop-opacity="0.067"/>
<stop offset="0.294" stop-color="white" stop-opacity="0.239"/>
<stop offset="0.568" stop-color="white" stop-opacity="0.522"/>
<stop offset="0.907" stop-color="white" stop-opacity="0.902"/>
<stop offset="0.989" stop-color="white"/>
</linearGradient>
</defs>
</svg>
