<svg width="53" height="16" viewBox="0 0 53 16" fill="none" xmlns="http://www.w3.org/2000/svg">
<path d="M0 15.6796C0.0525777 14.7028 0.364652 13.7577 0.904175 12.9417C1.4437 12.1257 2.19114 11.4684 3.06934 11.0375C3.94753 10.6066 4.92476 10.4177 5.90027 10.4903C6.87578 10.5629 7.81429 10.8944 8.61902 11.4505C9.04365 10.142 9.8119 8.97146 10.8435 8.06126C11.8751 7.15107 13.1321 6.53461 14.4834 6.27629C15.8347 6.01797 17.2305 6.12726 18.5251 6.59276C19.8197 7.05826 20.9657 7.86289 21.843 8.92256C22.3 6.26963 23.736 3.88482 25.8669 2.23985C27.9979 0.594884 30.6686 -0.190455 33.3508 0.0391994C36.033 0.268854 38.5313 1.49677 40.3516 3.48006C42.1719 5.46334 43.1815 8.05755 43.1809 10.7496C43.1805 11.1505 43.1586 11.551 43.115 11.9495C43.8803 11.2376 44.8328 10.7584 45.8606 10.5682C46.8884 10.378 47.949 10.4847 48.9185 10.8757C49.8879 11.2667 50.7257 11.9258 51.334 12.7759C51.9422 13.626 52.2958 14.6318 52.353 15.6756L0 15.6796Z" fill="url(#paint0_linear_1_80)"/>
<defs>
<linearGradient id="paint0_linear_1_80" x1="742.628" y1="16.2127" x2="742.628" y2="-0.37631" gradientUnits="userSpaceOnUse">
<stop stop-color="white" stop-opacity="0"/>
<stop offset="0.099" stop-color="white" stop-opacity="0.067"/>
<stop offset="0.294" stop-color="white" stop-opacity="0.239"/>
<stop offset="0.568" stop-color="white" stop-opacity="0.522"/>
<stop offset="0.907" stop-color="white" stop-opacity="0.902"/>
<stop offset="0.989" stop-color="white"/>
</linearGradient>
</defs>
</svg>
